<svg xmlns="http://www.w3.org/2000/svg" id="Layer_1" x="0" y="0" version="1.1" viewBox="0 0 64 64" xml:space="preserve"><linearGradient id="SVGID_1_" x1="31.998" x2="31.998" y1="62.25" y2="7.491" gradientUnits="userSpaceOnUse"><stop offset="0" stop-color="#ED2E3B"/><stop offset="1" stop-color="#D5183B"/></linearGradient><path fill="url(#SVGID_1_)" d="M42.7 2.9H21.3c-3.8 0-7.3 2-9.2 5.3L1.4 26.7C-.5 30-.5 34 1.4 37.3l10.7 18.5c1.9 3.3 5.4 5.3 9.2 5.3h21.4c3.8 0 7.3-2 9.2-5.3l10.7-18.5c1.9-3.3 1.9-7.3 0-10.6L51.9 8.2c-1.9-3.3-5.4-5.3-9.2-5.3z"/><path fill="#333" d="M62.6 26.7l-4.6-8C56.6 38.4 40.1 54 20 54c-3.3 0-6.5-.4-9.6-1.2l1.8 3c1.9 3.3 5.4 5.3 9.2 5.3h21.4c3.8 0 7.3-2 9.2-5.3l10.7-18.5c1.8-3.3 1.8-7.3-.1-10.6z" opacity=".1"/><ellipse cx="24.5" cy="8.3" fill="#fff" opacity=".3" rx="7.5" ry="3.3"/><path fill="#fff" d="M49 27.3V27c-.3-5.1-4.6-9.1-9.8-9.1-2.8 0-5.4 1.2-7.2 3.1-1.8-1.9-4.3-3.1-7.2-3.1-5.2 0-9.4 4-9.8 9.1v.6c0 1.5.3 2.9.9 4.1C19.4 41.1 32 47.8 32 47.8s12.6-6.7 16.1-16.1c.6-1.3.9-2.6.9-4.1v-.3z"/></svg>